:SAMPLES-PER-SECOND 30
:FULLY-SPECIFIED
:DEGREES
1
root  77.9679 40.4686 -3.64744 -161.203 -88.9664 161.719
RightUpLeg  1.00899 -8.52279 -5.94439
RightLeg  2.05412 -9.89271 3.97006
RightFoot  -1.89713 0.0604345 -0.983293
RightToes  3.49245e-010 0 -3.6325e-017
Spine  1.23724 -0.410291 -0.768333
Spine1  2.95624 -0.548624 0.659257
HEad  -1.66643 2.89653 1.2767
LeftShoulder1  0.862381 -0.520966 -14.3644
LeftArm  -16.7146 8.10122 -2.81445
LeftForeArm  8.57683 -0.470893 -2.04298
LeftHand  -0.244104 0.0205437 5.32207
RightShoulder  0.832709 0.954637 11.5485
RightArm  -18.9274 -0.440714 1.78063
RightForeArm  5.80386 0.771755 3.24802
RightHand  -0.784004 2.69415 -11.4298
LeftUpLeg  0.253136 6.32579 4.87078
LeftLeg  1.18163 15.5472 -4.23166
LeftFoot  -1.32987 0.129033 -1.46047
LeftToes  1.68253e-010 -2.29257e-011 3.59052e-011
2
root  77.9617 40.4686 -3.64383 -161.179 -88.9784 161.711
RightUpLeg  1.02543 -8.50665 -5.93732
RightLeg  2.01058 -9.9147 3.96131
RightFoot  -1.90889 0.0571825 -0.93276
RightToes  3.49245e-010 0 -3.6325e-017
Spine  1.19785 -0.41785 -0.750112
Spine1  3.02585 -0.547831 0.617748
HEad  -1.71895 2.75863 1.33811
LeftShoulder1  0.852809 -0.488151 -14.2935
LeftArm  -16.7623 8.05176 -2.89815
LeftForeArm  8.57954 -0.429041 -2.02729
LeftHand  -0.244104 0.0205437 5.32207
RightShoulder  0.823083 0.887708 11.6213
RightArm  -19.0116 -0.33094 1.77062
RightForeArm  5.79244 0.695485 3.22417
RightHand  -0.784209 2.68846 -11.4555
LeftUpLeg  0.254629 6.32148 4.86592
LeftLeg  1.16444 15.5488 -4.23271
LeftFoot  -1.33549 0.127864 -1.4423
LeftToes  1.68253e-010 -2.29257e-011 3.59052e-011
3
root  77.9519 40.4686 -3.63587 -161.412 -88.988 161.959
RightUpLeg  1.04821 -8.48203 -5.92939
RightLeg  1.96613 -9.92995 3.94252
RightFoot  -1.90487 0.0534578 -0.874885
RightToes  3.49245e-010 0 -3.6325e-017
Spine  1.27015 -0.404427 -0.661983
Spine1  2.95526 -0.499885 0.452833
HEad  -1.76547 2.29771 1.53317
LeftShoulder1  0.857735 -0.53142 -14.1797
LeftArm  -16.8288 7.96031 -2.9694
LeftForeArm  8.62959 -0.289648 -1.99292
LeftHand  -0.244104 0.0205437 5.32207
RightShoulder  0.797514 0.714164 11.8021
RightArm  -19.1164 -0.167533 1.75137
RightForeArm  5.90928 0.596317 3.19043
RightHand  -0.794468 2.79454 -11.4633
LeftUpLeg  0.262747 6.31188 4.85499
LeftLeg  1.14076 15.5587 -4.23303
LeftFoot  -1.34449 0.126656 -1.42352
LeftToes  1.68253e-010 -2.29257e-011 3.59052e-011
4
root  77.941 40.4686 -3.62713 -161.997 -88.9856 162.557
RightUpLeg  1.06092 -8.45374 -5.91779
RightLeg  1.9328 -9.94677 3.91817
RightFoot  -1.8718 0.0512975 -0.84132
RightToes  3.49245e-010 0 -3.6325e-017
Spine  1.39905 -0.377621 -0.591709
Spine1  2.79397 -0.44851 0.336297
HEad  -1.78448 1.87122 1.78728
LeftShoulder1  0.88191 -0.636937 -14.2311
LeftArm  -16.8264 7.8933 -2.87185
LeftForeArm  8.66182 -0.186524 -1.98314
LeftHand  -0.244104 0.0205437 5.32207
RightShoulder  0.769949 0.548043 11.9055
RightArm  -19.1406 -0.0704636 1.77473
RightForeArm  6.20927 0.541603 3.17243
RightHand  -0.824365 3.12326 -11.4478
LeftUpLeg  0.27354 6.29635 4.84353
LeftLeg  1.12587 15.5815 -4.21961
LeftFoot  -1.35221 0.1288 -1.45684
LeftToes  1.68253e-010 -2.29257e-011 3.59052e-011
5
root  77.9283 40.4686 -3.62051 -162.626 -88.9667 163.21
RightUpLeg  1.05238 -8.41038 -5.89464
RightLeg  1.91257 -9.98052 3.8739
RightFoot  -1.84674 0.0490878 -0.806987
RightToes  3.49245e-010 0 -3.6325e-017
Spine  1.43721 -0.345472 -0.626157
Spine1  2.74726 -0.425032 0.383985
HEad  -1.7385 1.85289 1.952
LeftShoulder1  0.904981 -0.715817 -14.4028
LeftArm  -16.7539 7.88621 -2.70143
LeftForeArm  8.67723 -0.233197 -2.01377
LeftHand  -0.244104 0.0205437 5.32207
RightShoulder  0.754639 0.461635 11.936
RightArm  -19.1219 -0.0383403 1.76247
RightForeArm  6.55186 0.531079 3.16465
RightHand  -0.858532 3.51332 -11.4134
LeftUpLeg  0.272899 6.27958 4.83266
LeftLeg  1.11981 15.6153 -4.20397
LeftFoot  -1.3632 0.132471 -1.51391
LeftToes  1.68253e-010 -2.29257e-011 3.59052e-011
6
root  77.9151 40.4686 -3.61509 -163.228 -88.9257 163.832
RightUpLeg  1.03145 -8.35748 -5.86863
RightLeg  1.92762 -10.0022 3.80879
RightFoot  -1.85949 0.0459337 -0.757984
RightToes  3.49245e-010 0 -3.6325e-017
Spine  1.37751 -0.323931 -0.73311
Spine1  2.88727 -0.433863 0.535562
HEad  -1.61088 2.17715 1.90968
LeftShoulder1  0.90834 -0.694898 -14.548
LeftArm  -16.739 7.8872 -2.62214
LeftForeArm  8.71377 -0.316625 -2.0272
LeftHand  -0.244104 0.0205437 5.32207
RightShoulder  0.742747 0.400115 11.9304
RightArm  -19.1876 0.0619115 1.75486
RightForeArm  6.76342 0.528665 3.14481
RightHand  -0.876765 3.72178 -11.3953
LeftUpLeg  0.280035 6.27438 4.82434
LeftLeg  1.11698 15.6582 -4.20487
LeftFoot  -1.38423 0.132971 -1.52169
LeftToes  1.68253e-010 -2.29257e-011 3.59052e-011
7
root  77.9029 40.4686 -3.60762 -164.084 -88.8724 164.678
RightUpLeg  1.03423 -8.32386 -5.85938
RightLeg  1.96097 -9.98012 3.75988
RightFoot  -1.88542 0.0438747 -0.725996
RightToes  3.49245e-010 0 -3.6325e-017
Spine  1.40192 -0.302976 -0.799384
Spine1  2.96797 -0.435272 0.641172
HEad  -1.42219 2.4656 1.74185
LeftShoulder1  0.91116 -0.656855 -14.6062
LeftArm  -16.8149 7.87108 -2.6399
LeftForeArm  8.73874 -0.273319 -1.99081
LeftHand  -0.244104 0.0205437 5.32207
RightShoulder  0.718826 0.278728 11.9051
RightArm  -19.2751 0.230358 1.80809
RightForeArm  6.76252 0.549357 3.13875
RightHand  -0.879205 3.71033 -11.4438
LeftUpLeg  0.321659 6.28242 4.82074
LeftLeg  1.11183 15.7041 -4.21612
LeftFoot  -1.41192 0.130227 -1.47903
LeftToes  1.68253e-010 -2.29257e-011 3.59052e-011
8
root  77.8894 40.4686 -3.59756 -165.152 -88.827 165.72
RightUpLeg  1.07434 -8.3235 -5.87057
RightLeg  1.9619 -9.9278 3.75576
RightFoot  -1.89102 0.0447434 -0.739492
RightToes  3.49245e-010 0 -3.6325e-017
Spine  1.52836 -0.276164 -0.806036
Spine1  2.88937 -0.419033 0.684952
HEad  -1.26732 2.5886 1.61884
LeftShoulder1  0.911937 -0.679466 -14.6274
LeftArm  -16.8537 7.89684 -2.66131
LeftForeArm  8.67565 -0.185837 -1.96085
LeftHand  -0.244104 0.0205437 5.32207
RightShoulder  0.696151 0.170011 11.8441
RightArm  -19.2522 0.308683 1.8789
RightForeArm  6.61031 0.611237 3.17053
RightHand  -0.876419 3.5967 -11.5256
LeftUpLeg  0.382196 6.28628 4.8167
LeftLeg  1.10743 15.7491 -4.21526
LeftFoot  -1.43976 0.128129 -1.44642
LeftToes  1.68253e-010 -2.29257e-011 3.59052e-011
9
root  77.8723 40.4686 -3.58779 -165.962 -88.7913 166.532
RightUpLeg  1.10674 -8.33861 -5.88782
RightLeg  1.93554 -9.87135 3.774
RightFoot  -1.88981 0.0468621 -0.772407
RightToes  3.49245e-010 0 -3.6325e-017
Spine  1.54618 -0.269429 -0.822562
Spine1  2.89093 -0.424756 0.736983
HEad  -1.24066 2.67029 1.59045
LeftShoulder1  0.908452 -0.690236 -14.6368
LeftArm  -16.8034 8.00463 -2.67316
LeftForeArm  8.55097 -0.234354 -1.97832
LeftHand  -0.244104 0.0205437 5.32207
RightShoulder  0.707555 0.239595 11.7917
RightArm  -19.16 0.220752 1.85694
RightForeArm  6.49706 0.683096 3.20501
RightHand  -0.874742 3.51498 -11.5391
LeftUpLeg  0.414783 6.28004 4.80619
LeftLeg  1.10794 15.7926 -4.20383
LeftFoot  -1.4726 0.128236 -1.44808
LeftToes  1.68253e-010 -2.29257e-011 3.59052e-011
10
root  77.8532 40.4686 -3.57946 -166.353 -88.7509 166.957
RightUpLeg  1.0957 -8.35366 -5.905
RightLeg  1.93287 -9.8064 3.78424
RightFoot  -1.90618 0.0470842 -0.775858
RightToes  3.49245e-010 0 -3.6325e-017
Spine  1.439 -0.287055 -0.83039
Spine1  3.01536 -0.443658 0.73837
HEad  -1.26312 2.65079 1.5993
LeftShoulder1  0.897207 -0.645092 -14.5872
LeftArm  -16.782 8.15469 -2.72244
LeftForeArm  8.48298 -0.375847 -1.99028
LeftHand  -0.244104 0.0205437 5.32207
RightShoulder  0.757214 0.484957 11.8835
RightArm  -19.0837 0.0239578 1.6673
RightForeArm  6.61616 0.74857 3.20805
RightHand  -0.876463 3.59376 -11.462
LeftUpLeg  0.409656 6.27522 4.79236
LeftLeg  1.11791 15.8327 -4.20103
LeftFoot  -1.51581 0.129644 -1.46997
LeftToes  1.68253e-010 -2.29257e-011 3.59052e-011
11
root  77.8349 40.4686 -3.56977 -166.766 -88.7059 167.403
RightUpLeg  1.08004 -8.37524 -5.92992
RightLeg  1.94471 -9.72487 3.79803
RightFoot  -1.92206 0.0449922 -0.743356
RightToes  3.49245e-010 0 -3.6325e-017
Spine  1.36535 -0.306459 -0.745873
Spine1  3.09734 -0.438875 0.617045
HEad  -1.17888 2.43555 1.56541
LeftShoulder1  0.88936 -0.61617 -14.5436
LeftArm  -16.8625 8.28471 -2.76714
LeftForeArm  8.48532 -0.461241 -1.95089
LeftHand  -0.244104 0.0205437 5.32207
RightShoulder  0.811606 0.735679 12.064
RightArm  -19.0559 -0.19114 1.4528
RightForeArm  6.8724 0.798799 3.18106
RightHand  -0.87664 3.72462 -11.3947
LeftUpLeg  0.408791 6.27147 4.77888
LeftLeg  1.12578 15.8743 -4.20301
LeftFoot  -1.55561 0.131923 -1.50539
LeftToes  1.68253e-010 -2.29257e-011 3.59052e-011
12
root  77.8172 40.4686 -3.55731 -167.333 -88.6706 167.994
RightUpLeg  1.08948 -8.40722 -5.96314
RightLeg  1.9259 -9.64643 3.83068
RightFoot  -1.91398 0.0430754 -0.713578
RightToes  3.49245e-010 0 -3.6325e-017
Spine  1.43488 -0.299575 -0.621898
Spine1  2.98991 -0.408434 0.498295
HEad  -0.914323 2.22988 1.44474
LeftShoulder1  0.902055 -0.659193 -14.6346
LeftArm  -16.8958 8.38337 -2.73098
LeftForeArm  8.52538 -0.514286 -1.92652
LeftHand  -0.244104 0.0205437 5.32207
RightShoulder  0.833955 0.830398 12.1722
RightArm  -19.057 -0.346032 1.37428
RightForeArm  6.75711 0.834372 3.16491
RightHand  -0.851165 3.41107 -11.4449
LeftUpLeg  0.4282 6.25536 4.75823
LeftLeg  1.10228 15.9286 -4.19714
LeftFoot  -1.57299 0.133346 -1.52752
LeftToes  1.68253e-010 -2.29257e-011 3.59052e-011
13
root  77.7987 40.4683 -3.54559 -167.372 -88.6438 168.089
RightUpLeg  1.06164 -8.43776 -5.99524
RightLeg  1.91235 -9.59188 3.85619
RightFoot  -1.90695 0.0431674 -0.715007
RightToes  3.49245e-010 0 -3.6325e-017
Spine  1.5093 -0.279475 -0.610057
Spine1  2.87651 -0.399505 0.552234
HEad  -0.681788 2.30097 1.27914
LeftShoulder1  0.912249 -0.666954 -14.8576
LeftArm  -16.7963 8.41062 -2.67319
LeftForeArm  8.59688 -0.595607 -1.97171
LeftHand  -0.244104 0.0205437 5.32207
RightShoulder  0.817818 0.743532 12.1863
RightArm  -19.0818 -0.308961 1.45092
RightForeArm  5.89778 0.867006 3.20288
RightHand  -0.775539 2.45593 -11.6597
LeftUpLeg  0.41445 6.23525 4.725
LeftLeg  1.06486 15.9851 -4.20079
LeftFoot  -1.57303 0.130878 -1.48915
LeftToes  1.68253e-010 -2.29257e-011 3.59052e-011
14
root  77.7798 40.4668 -3.53821 -166.515 -88.6121 167.325
RightUpLeg  0.953243 -8.46084 -6.02446
RightLeg  1.97216 -9.55535 3.85016
RightFoot  -1.93398 0.0443271 -0.733024
RightToes  3.49245e-010 0 -3.6325e-017
Spine  1.41644 -0.275589 -0.704507
Spine1  3.03032 -0.423951 0.695748
HEad  -0.8256 2.56851 1.17598
LeftShoulder1  0.901313 -0.578359 -15.0762
LeftArm  -16.7179 8.3318 -2.70954
LeftForeArm  8.62699 -0.6056 -2.01939
LeftHand  -0.244104 0.0205437 5.32207
RightShoulder  0.789544 0.585781 12.2423
RightArm  -19.0724 -0.0709269 1.57046
RightForeArm  4.74964 0.899956 3.30051
RightHand  -0.713891 1.61949 -11.96
LeftUpLeg  0.32685 6.23168 4.69049
LeftLeg  1.09293 16.0165 -4.22496
LeftFoot  -1.57929 0.125911 -1.41194
LeftToes  1.68253e-010 -2.29257e-011 3.59052e-011
15
root  77.7633 40.464 -3.53369 -165.688 -88.5719 166.566
RightUpLeg  0.850114 -8.48084 -6.05292
RightLeg  2.07174 -9.51988 3.83282
RightFoot  -1.97699 0.0445612 -0.736661
RightToes  3.49245e-010 0 -3.6325e-017
Spine  1.27949 -0.276368 -0.759643
Spine1  3.31131 -0.433278 0.744069
HEad  -1.14179 2.9735 1.13208
LeftShoulder1  0.908893 -0.583804 -15.245
LeftArm  -16.7142 8.29908 -2.7608
LeftForeArm  8.526 -0.514257 -2.01872
LeftHand  -0.244104 0.0205437 5.32207
RightShoulder  0.784861 0.532251 12.3956
RightArm  -18.9656 0.0876345 1.59936
RightForeArm  4.24981 0.891703 3.39056
RightHand  -0.725151 1.67081 -12.0678
LeftUpLeg  0.223116 6.23664 4.66822
LeftLeg  1.21947 16.0384 -4.23081
LeftFoot  -1.60257 0.123632 -1.37652
LeftToes  1.68253e-010 -2.29257e-011 3.59052e-011
